<mxfile host="app.diagrams.net" modified="2022-10-13T17:05:44.917Z" agent="5.0 (Macintosh; Intel Mac OS X 10_15_7) AppleWebKit/605.1.15 (KHTML, like Gecko) Version/16.0 Safari/605.1.15" etag="TC1a9kCh80nj2hF-Va6K" version="20.4.0" type="github">
  <diagram id="kgpKYQtTHZ0yAKxKKP6v" name="Page-1">
    <mxGraphModel dx="850" dy="483" grid="1" gridSize="10" guides="1" tooltips="1" connect="1" arrows="1" fold="1" page="1" pageScale="1" pageWidth="850" pageHeight="1100" math="0" shadow="0">
      <root>
        <mxCell id="0" />
        <mxCell id="1" parent="0" />
        <mxCell id="k9uxJX_V_opq5qB4x1F6-1" value="baseflow recession algorithm" style="shape=table;childLayout=tableLayout;startSize=40;collapsible=0;recursiveResize=0;expand=0;fillColor=none;fontStyle=1" vertex="1" parent="1">
          <mxGeometry x="100" y="70" width="670" height="308" as="geometry" />
        </mxCell>
        <mxCell id="k9uxJX_V_opq5qB4x1F6-2" value="" style="edgeStyle=orthogonalEdgeStyle;rounded=0;orthogonalLoop=1;jettySize=auto;html=1;" edge="1" parent="k9uxJX_V_opq5qB4x1F6-1" source="k9uxJX_V_opq5qB4x1F6-7" target="k9uxJX_V_opq5qB4x1F6-17">
          <mxGeometry relative="1" as="geometry" />
        </mxCell>
        <mxCell id="k9uxJX_V_opq5qB4x1F6-3" value="event analysis" style="shape=tableRow;horizontal=0;swimlaneHead=0;swimlaneBody=0;top=0;left=0;bottom=0;right=0;fillColor=none;points=[[0,0.5],[1,0.5]];portConstraint=eastwest;startSize=40;collapsible=0;recursiveResize=0;expand=0;fontStyle=1;" vertex="1" parent="k9uxJX_V_opq5qB4x1F6-1">
          <mxGeometry y="40" width="670" height="170" as="geometry" />
        </mxCell>
        <mxCell id="k9uxJX_V_opq5qB4x1F6-4" value="Feel tired" style="swimlane;swimlaneHead=0;swimlaneBody=0;connectable=0;fillColor=none;startSize=40;collapsible=0;recursiveResize=0;expand=0;fontStyle=1;" vertex="1" parent="k9uxJX_V_opq5qB4x1F6-3">
          <mxGeometry x="40" width="130" height="170" as="geometry">
            <mxRectangle width="130" height="170" as="alternateBounds" />
          </mxGeometry>
        </mxCell>
        <mxCell id="k9uxJX_V_opq5qB4x1F6-5" style="edgeStyle=orthogonalEdgeStyle;rounded=0;orthogonalLoop=1;jettySize=auto;html=1;" edge="1" parent="k9uxJX_V_opq5qB4x1F6-4" source="k9uxJX_V_opq5qB4x1F6-6" target="k9uxJX_V_opq5qB4x1F6-7">
          <mxGeometry relative="1" as="geometry" />
        </mxCell>
        <mxCell id="k9uxJX_V_opq5qB4x1F6-6" value="flow data" style="rounded=1;whiteSpace=wrap;html=1;arcSize=50;" vertex="1" parent="k9uxJX_V_opq5qB4x1F6-4">
          <mxGeometry x="20" y="60" width="90" height="40" as="geometry" />
        </mxCell>
        <mxCell id="k9uxJX_V_opq5qB4x1F6-7" value="event detection" style="rounded=0;whiteSpace=wrap;html=1;" vertex="1" parent="k9uxJX_V_opq5qB4x1F6-4">
          <mxGeometry x="20" y="120" width="90" height="40" as="geometry" />
        </mxCell>
        <mxCell id="k9uxJX_V_opq5qB4x1F6-8" value="Make transaction" style="swimlane;swimlaneHead=0;swimlaneBody=0;connectable=0;fillColor=none;startSize=40;collapsible=0;recursiveResize=0;expand=0;fontStyle=1;" vertex="1" parent="k9uxJX_V_opq5qB4x1F6-3">
          <mxGeometry x="170" width="370" height="170" as="geometry">
            <mxRectangle width="370" height="170" as="alternateBounds" />
          </mxGeometry>
        </mxCell>
        <mxCell id="k9uxJX_V_opq5qB4x1F6-9" value="compute tau" style="rounded=0;whiteSpace=wrap;html=1;" vertex="1" parent="k9uxJX_V_opq5qB4x1F6-8">
          <mxGeometry x="20" y="120" width="90" height="40" as="geometry" />
        </mxCell>
        <mxCell id="k9uxJX_V_opq5qB4x1F6-10" value="Buy latte" style="rounded=0;whiteSpace=wrap;html=1;" vertex="1" parent="k9uxJX_V_opq5qB4x1F6-8">
          <mxGeometry x="150" y="120" width="90" height="40" as="geometry" />
        </mxCell>
        <mxCell id="k9uxJX_V_opq5qB4x1F6-11" value="Feel perky" style="swimlane;swimlaneHead=0;swimlaneBody=0;connectable=0;fillColor=none;startSize=40;collapsible=0;recursiveResize=0;expand=0;fontStyle=1;" vertex="1" parent="k9uxJX_V_opq5qB4x1F6-3">
          <mxGeometry x="540" width="130" height="170" as="geometry">
            <mxRectangle width="130" height="170" as="alternateBounds" />
          </mxGeometry>
        </mxCell>
        <mxCell id="k9uxJX_V_opq5qB4x1F6-12" style="edgeStyle=orthogonalEdgeStyle;rounded=0;orthogonalLoop=1;jettySize=auto;html=1;" edge="1" parent="k9uxJX_V_opq5qB4x1F6-11" source="k9uxJX_V_opq5qB4x1F6-13" target="k9uxJX_V_opq5qB4x1F6-14">
          <mxGeometry relative="1" as="geometry" />
        </mxCell>
        <mxCell id="k9uxJX_V_opq5qB4x1F6-13" value="Drink latte" style="rounded=0;whiteSpace=wrap;html=1;" vertex="1" parent="k9uxJX_V_opq5qB4x1F6-11">
          <mxGeometry x="20" y="60" width="90" height="40" as="geometry" />
        </mxCell>
        <mxCell id="k9uxJX_V_opq5qB4x1F6-14" value="End" style="rounded=1;whiteSpace=wrap;html=1;arcSize=50;" vertex="1" parent="k9uxJX_V_opq5qB4x1F6-11">
          <mxGeometry x="20" y="120" width="90" height="40" as="geometry" />
        </mxCell>
        <mxCell id="k9uxJX_V_opq5qB4x1F6-15" value="parameter estimation" style="shape=tableRow;horizontal=0;swimlaneHead=0;swimlaneBody=0;top=0;left=0;bottom=0;right=0;fillColor=none;points=[[0,0.5],[1,0.5]];portConstraint=eastwest;startSize=40;collapsible=0;recursiveResize=0;expand=0;fontStyle=1;" vertex="1" parent="k9uxJX_V_opq5qB4x1F6-1">
          <mxGeometry y="210" width="670" height="98" as="geometry" />
        </mxCell>
        <mxCell id="k9uxJX_V_opq5qB4x1F6-16" value="" style="swimlane;swimlaneHead=0;swimlaneBody=0;connectable=0;fillColor=none;startSize=0;collapsible=0;recursiveResize=0;expand=0;fontStyle=1;" vertex="1" parent="k9uxJX_V_opq5qB4x1F6-15">
          <mxGeometry x="40" width="130" height="98" as="geometry">
            <mxRectangle width="130" height="98" as="alternateBounds" />
          </mxGeometry>
        </mxCell>
        <mxCell id="k9uxJX_V_opq5qB4x1F6-17" value="estimate event-scale&amp;nbsp;&lt;b&gt;&lt;i&gt;a&lt;/i&gt;&lt;/b&gt; and &lt;b&gt;&lt;i&gt;b&lt;/i&gt;&lt;/b&gt;" style="rounded=0;whiteSpace=wrap;html=1;" vertex="1" parent="k9uxJX_V_opq5qB4x1F6-16">
          <mxGeometry x="10" y="20" width="100" height="40" as="geometry" />
        </mxCell>
        <mxCell id="k9uxJX_V_opq5qB4x1F6-18" value="" style="swimlane;swimlaneHead=0;swimlaneBody=0;connectable=0;fillColor=none;startSize=0;collapsible=0;recursiveResize=0;expand=0;fontStyle=1;" vertex="1" parent="k9uxJX_V_opq5qB4x1F6-15">
          <mxGeometry x="170" width="370" height="98" as="geometry">
            <mxRectangle width="370" height="98" as="alternateBounds" />
          </mxGeometry>
        </mxCell>
        <mxCell id="k9uxJX_V_opq5qB4x1F6-19" value="" style="edgeStyle=orthogonalEdgeStyle;rounded=0;orthogonalLoop=1;jettySize=auto;html=1;" edge="1" parent="k9uxJX_V_opq5qB4x1F6-18" source="k9uxJX_V_opq5qB4x1F6-20" target="k9uxJX_V_opq5qB4x1F6-22">
          <mxGeometry relative="1" as="geometry" />
        </mxCell>
        <mxCell id="k9uxJX_V_opq5qB4x1F6-20" value="Accept&lt;br&gt;payment" style="rounded=0;whiteSpace=wrap;html=1;" vertex="1" parent="k9uxJX_V_opq5qB4x1F6-18">
          <mxGeometry x="150" y="20" width="90" height="40" as="geometry" />
        </mxCell>
        <mxCell id="k9uxJX_V_opq5qB4x1F6-21" value="Fit Pareto distribution" style="shape=document;whiteSpace=wrap;html=1;boundedLbl=1;" vertex="1" parent="k9uxJX_V_opq5qB4x1F6-18">
          <mxGeometry x="20" y="10" width="90" height="60" as="geometry" />
        </mxCell>
        <mxCell id="k9uxJX_V_opq5qB4x1F6-22" value="Make latte" style="shape=process;whiteSpace=wrap;html=1;backgroundOutline=1;" vertex="1" parent="k9uxJX_V_opq5qB4x1F6-18">
          <mxGeometry x="260" y="20" width="90" height="40" as="geometry" />
        </mxCell>
        <mxCell id="k9uxJX_V_opq5qB4x1F6-23" value="" style="swimlane;swimlaneHead=0;swimlaneBody=0;connectable=0;fillColor=none;startSize=0;collapsible=0;recursiveResize=0;expand=0;fontStyle=1;" vertex="1" parent="k9uxJX_V_opq5qB4x1F6-15">
          <mxGeometry x="540" width="130" height="98" as="geometry">
            <mxRectangle width="130" height="98" as="alternateBounds" />
          </mxGeometry>
        </mxCell>
        <mxCell id="k9uxJX_V_opq5qB4x1F6-24" value="" style="edgeStyle=orthogonalEdgeStyle;rounded=0;orthogonalLoop=1;jettySize=auto;html=1;" edge="1" parent="k9uxJX_V_opq5qB4x1F6-1" source="k9uxJX_V_opq5qB4x1F6-17" target="k9uxJX_V_opq5qB4x1F6-9">
          <mxGeometry relative="1" as="geometry">
            <Array as="points">
              <mxPoint x="160" y="260" />
              <mxPoint x="160" y="180" />
            </Array>
          </mxGeometry>
        </mxCell>
        <mxCell id="k9uxJX_V_opq5qB4x1F6-25" value="" style="edgeStyle=orthogonalEdgeStyle;rounded=0;orthogonalLoop=1;jettySize=auto;html=1;" edge="1" parent="k9uxJX_V_opq5qB4x1F6-1" source="k9uxJX_V_opq5qB4x1F6-9" target="k9uxJX_V_opq5qB4x1F6-21">
          <mxGeometry relative="1" as="geometry" />
        </mxCell>
        <mxCell id="k9uxJX_V_opq5qB4x1F6-26" value="" style="edgeStyle=orthogonalEdgeStyle;rounded=0;orthogonalLoop=1;jettySize=auto;html=1;" edge="1" parent="k9uxJX_V_opq5qB4x1F6-1" source="k9uxJX_V_opq5qB4x1F6-21" target="k9uxJX_V_opq5qB4x1F6-10">
          <mxGeometry relative="1" as="geometry">
            <Array as="points">
              <mxPoint x="300" y="260" />
              <mxPoint x="300" y="180" />
            </Array>
          </mxGeometry>
        </mxCell>
        <mxCell id="k9uxJX_V_opq5qB4x1F6-27" value="" style="edgeStyle=orthogonalEdgeStyle;rounded=0;orthogonalLoop=1;jettySize=auto;html=1;" edge="1" parent="k9uxJX_V_opq5qB4x1F6-1" source="k9uxJX_V_opq5qB4x1F6-10" target="k9uxJX_V_opq5qB4x1F6-20">
          <mxGeometry relative="1" as="geometry" />
        </mxCell>
        <mxCell id="k9uxJX_V_opq5qB4x1F6-28" style="edgeStyle=orthogonalEdgeStyle;rounded=0;orthogonalLoop=1;jettySize=auto;html=1;" edge="1" parent="k9uxJX_V_opq5qB4x1F6-1" source="k9uxJX_V_opq5qB4x1F6-22" target="k9uxJX_V_opq5qB4x1F6-13">
          <mxGeometry relative="1" as="geometry">
            <Array as="points">
              <mxPoint x="530" y="260" />
              <mxPoint x="530" y="120" />
            </Array>
          </mxGeometry>
        </mxCell>
      </root>
    </mxGraphModel>
  </diagram>
</mxfile>
